<svg xmlns="http://www.w3.org/2000/svg" width="960" height="720" viewBox="0 0 960 720" role="img" aria-labelledby="title desc">
  <title id="title">AI cost governance report preview</title>
  <desc id="desc">A stylized AI cost governance dashboard showing API spend, infrastructure savings, ownership, budget controls, and recommendations.</desc>
  <defs>
    <linearGradient id="bg" x1="0" y1="0" x2="1" y2="1">
      <stop offset="0" stop-color="#0f172a"/>
      <stop offset="0.52" stop-color="#111827"/>
      <stop offset="1" stop-color="#020617"/>
    </linearGradient>
    <linearGradient id="accent" x1="0" y1="0" x2="1" y2="1">
      <stop offset="0" stop-color="#7dd3fc"/>
      <stop offset="1" stop-color="#fde047"/>
    </linearGradient>
    <filter id="shadow" x="-20%" y="-20%" width="140%" height="140%">
      <feDropShadow dx="0" dy="24" stdDeviation="28" flood-color="#000000" flood-opacity="0.38"/>
    </filter>
  </defs>
  <rect width="960" height="720" fill="url(#bg)"/>
  <circle cx="130" cy="95" r="170" fill="#38bdf8" opacity="0.16"/>
  <circle cx="870" cy="70" r="190" fill="#facc15" opacity="0.12"/>
  <g filter="url(#shadow)">
    <rect x="82" y="74" width="796" height="572" rx="30" fill="#020617" stroke="#ffffff" stroke-opacity="0.12"/>
    <rect x="118" y="116" width="724" height="58" rx="18" fill="#ffffff" fill-opacity="0.06"/>
    <circle cx="148" cy="145" r="12" fill="#7dd3fc"/>
    <rect x="176" y="136" width="170" height="16" rx="8" fill="#ffffff" fill-opacity="0.82"/>
    <rect x="688" y="130" width="122" height="28" rx="14" fill="url(#accent)"/>
    <rect x="118" y="216" width="218" height="126" rx="18" fill="#ffffff" fill-opacity="0.05" stroke="#ffffff" stroke-opacity="0.09"/>
    <rect x="370" y="216" width="218" height="126" rx="18" fill="#ffffff" fill-opacity="0.05" stroke="#ffffff" stroke-opacity="0.09"/>
    <rect x="622" y="216" width="220" height="126" rx="18" fill="#ffffff" fill-opacity="0.05" stroke="#ffffff" stroke-opacity="0.09"/>
    <rect x="144" y="244" width="88" height="12" rx="6" fill="#94a3b8"/>
    <rect x="144" y="274" width="132" height="28" rx="14" fill="#ffffff" fill-opacity="0.9"/>
    <rect x="144" y="314" width="154" height="10" rx="5" fill="#22c55e" opacity="0.9"/>
    <rect x="396" y="244" width="106" height="12" rx="6" fill="#94a3b8"/>
    <rect x="396" y="274" width="122" height="28" rx="14" fill="#ffffff" fill-opacity="0.9"/>
    <rect x="396" y="314" width="120" height="10" rx="5" fill="#facc15" opacity="0.95"/>
    <rect x="650" y="244" width="120" height="12" rx="6" fill="#94a3b8"/>
    <rect x="650" y="274" width="96" height="28" rx="14" fill="#ffffff" fill-opacity="0.9"/>
    <rect x="650" y="314" width="162" height="10" rx="5" fill="#38bdf8" opacity="0.9"/>
    <rect x="118" y="382" width="470" height="214" rx="22" fill="#ffffff" fill-opacity="0.05" stroke="#ffffff" stroke-opacity="0.09"/>
    <rect x="148" y="416" width="168" height="14" rx="7" fill="#ffffff" fill-opacity="0.82"/>
    <rect x="148" y="462" width="372" height="18" rx="9" fill="#ffffff" fill-opacity="0.08"/>
    <rect x="148" y="500" width="310" height="18" rx="9" fill="#ffffff" fill-opacity="0.08"/>
    <rect x="148" y="538" width="342" height="18" rx="9" fill="#ffffff" fill-opacity="0.08"/>
    <rect x="622" y="382" width="220" height="214" rx="22" fill="#facc15" fill-opacity="0.08" stroke="#fde047" stroke-opacity="0.22"/>
    <rect x="650" y="416" width="118" height="14" rx="7" fill="#fde047"/>
    <rect x="650" y="462" width="150" height="16" rx="8" fill="#ffffff" fill-opacity="0.68"/>
    <rect x="650" y="500" width="122" height="16" rx="8" fill="#ffffff" fill-opacity="0.44"/>
    <rect x="650" y="538" width="164" height="16" rx="8" fill="#ffffff" fill-opacity="0.44"/>
  </g>
</svg>
